<?xml version="1.0" encoding="utf-8"?>
<svg version="1.1" xmlns:xlink="http://www.w3.org/1999/xlink" width="39px" height="29px" xmlns="http://www.w3.org/2000/svg">
  <g transform="matrix(1 0 0 1 -425 -1914 )">
    <path d="M 20.896087875 0  L 18.102722015625 0  C 17.598159515625 0  17.13931903125 0.264017798  16.93395965625 0.671757798  L 16.272216796875 2.5284375  C 13.040184421875 3.24286816  10.50662559375 5.7862511  10.080871734375 9.00359404  L 8.938293609375 16.99671904  C 8.844449859375 17.70083846  8.48945053125 18.36476678  8.19085678125 18.86472678  L 5.7878723296875 22.88960952  C 5.4173723296875 23.41450952  5.38231419375 24.06178952  5.69979856875 24.62960952  C 6.01728294375 25.18756952  6.607062515625 25.52  7.277984390625 25.52  L 15.28317253125 25.52  C 15.580468921875 27.48421814  17.355272390625 29  19.5 29  C 21.644727609375 29  23.419531078125 27.48421814  23.71682746875 25.52  L 31.722015609375 25.52  C 32.392937484375 25.52  32.98257421875 25.18720702  33.30615234375 24.62054702  C 33.61815234375 24.06142702  33.583856109375 23.41421952  33.237121734375 22.92585952  L 30.810333328125 18.86359404  C 30.511739578125 18.36421404  30.157349625 17.70039476  30.0628965 16.99105476  L 28.92150909375 9.00925774  C 28.49463825 5.78684792  25.95959559375 3.2412372  22.72659309375 2.52730476  L 22.09222396875 0.736328096  L 22.063659515625 0.671757798  C 21.858909515625 0.264017798  21.400650375 0  20.896087875 0  Z M 18.03845184375 1.174726548  C 18.050030578125 1.168346548  18.072224625 1.16  18.103912125 1.16  L 20.897277984375 1.16  C 20.929574859375 1.16  20.9512168125 1.168428154  20.9603574375 1.171328096  L 21.375732421875 2.34152322  C 21.21373678125 2.3323134  21.05191846875 2.32  20.8877565 2.32  L 18.1122435 2.32  C 17.948224125 2.32  17.787315 2.33232964  17.6254576875 2.34152322  L 18.03845184375 1.174726548  Z M 3.2991943359375 1.231367202  C 3.2254599609375 1.192797202  3.147031509375 1.169841904  3.068298309375 1.162265596  C 2.8320988921875 1.139536904  2.593128646875 1.250788154  2.472015365625 1.461328096  C -0.724765884375 7.01946798  -0.733973175 13.89997202  2.449401825 19.41867202  C 2.5596987609375 19.61065202  2.76807643125 19.72  2.98379518125 19.72  C 3.08312330625 19.72  3.184536590625 19.69677274  3.277770965625 19.64863274  C 3.5727085265625 19.49435274  3.6802822265625 19.14204798  3.5181884765625 18.86132798  C 0.5334697265625 13.68656798  0.54206762390625 7.23287202  3.5408020171875 2.01867202  C 3.7028957671875 1.737951846  3.5947412109375 1.385067202  3.2991943359375 1.231367202  Z M 36.5327454375 1.462460952  C 36.41163215625 1.251920952  36.173937515625 1.139618452  35.937652359375 1.162265596  C 35.858890640625 1.169814702  35.780643234375 1.192652202  35.706756515625 1.231367202  C 35.411819015625 1.385067202  35.30247459375 1.737371904  35.46395896875 2.01867202  C 38.49011521875 7.29029202  38.4941236875 13.74235702  35.4746705625 18.85679702  C 35.3095299375 19.13577702  35.413647140625 19.48805452  35.706756515625 19.64523452  C 35.801209640625 19.69569452  35.90433721875 19.72  36.00549346875 19.72  C 36.21877471875 19.72  36.424800140625 19.61341572  36.536315765625 19.42433572  C 39.759909515625 13.96421572  39.7581673125 7.08150072  36.5327454375 1.462460952  Z M 6.427001953125 2.97136726  C 6.352962890625 2.93294226  6.2737155 2.91100202  6.194916 2.90339822  C 5.9585163421875 2.88058798  5.720203125 2.99078798  5.5986328125 3.20132798  C 4.3280859375 5.40822798  3.65625 7.9112  3.65625 10.44  C 3.65625 12.9688  4.3280859375 15.47177202  5.5986328125 17.67867202  C 5.7095390625 17.87065202  5.9184975890625 17.98  6.13421615625 17.98  C 6.23354428125 17.98  6.334376953125 17.95677274  6.427001953125 17.90863274  C 6.721939453125 17.75435274  6.82951303125 17.40204798  6.66741928125 17.12132798  C 5.4949819640625 15.08494798  4.875 12.7745  4.875 10.44  C 4.875 8.1055  5.494981903125 5.79505202  6.66741928125 3.75867202  C 6.82951303125 3.47795202  6.721939453125 3.12564726  6.427001953125 2.97136726  Z M 33.4013671875 3.20132798  C 33.279796875 2.99078798  33.041397796875 2.88058798  32.805084 2.90339822  C 32.726313140625 2.91100202  32.646884765625 2.93294226  32.572998046875 2.97136726  C 32.278060546875 3.12564726  32.17048696875 3.47795202  32.33258071875 3.75867202  C 33.50501821875 5.79505202  34.125 8.1055  34.125 10.44  C 34.125 12.7745  33.50501821875 15.08494798  32.33258071875 17.12132798  C 32.17048696875 17.40204798  32.278060546875 17.75435274  32.572998046875 17.90863274  C 32.666232421875 17.95677274  32.76645571875 17.98  32.86578384375 17.98  C 33.08089321875 17.98  33.2898515625 17.87123202  33.4013671875 17.67867202  C 34.6719140625 15.47177202  35.34375 12.9688  35.34375 10.44  C 35.34375 7.9112  34.6719140625 5.40822798  33.4013671875 3.20132798  Z M 11.288910140625 9.15425774  C 11.717300765625 5.91959774  14.650384125 3.48  18.1122435 3.48  L 20.8877565 3.48  C 24.349615875 3.48  27.28267059375 5.92004202  27.71227996875 9.15992202  L 28.853667984375 17.14171904  C 28.974324234375 18.04825846  29.39641209375 18.84574976  29.75106834375 19.43792976  L 32.20166015625 23.5353125  C 32.31805078125 23.7011925  32.328972 23.89931702  32.2290345 24.07679702  C 32.126050125 24.25717702  31.941390609375 24.36  31.722015609375 24  L 7.277984390625 24  C 7.058000015625 24.36  6.874530609375 24.25659702  6.772155609375 24.07679702  C 6.672827484375 23.89873702  6.68256834375 23.7020625  6.82333396875 23.4990625  L 9.087066421875 19.70980476  C 9.105636515625 19.71142876  9.1216125 19.72  9.140625 19.72  L 21.9375 19.72  C 22.273875 19.72  22.546875 19.46016  22.546875 19.14  C 22.546875 18.81984  22.273875 18.56  21.9375 18  L 9.713104171875 18  C 9.908886609375 18.1330881  10.07835075 17.66006446  10.146332015625 17.14738274  L 11.288910140625 9.15425774  Z M 20.8877565 5.22  L 20.71875 5.22  C 20.382375 5.22  20.109375 5.47984  20.109375 5.8  C 20.109375 6.12016  20.382375 6.38  20.71875 6.38  L 20.8877565 6.38  C 21.576959625 6.38  22.2538801875 6.55629274  22.8468020625 6.88863274  C 22.943692078125 6.94315274  23.050247390625 6.96792976  23.155059890625 6.96792976  C 23.364075515625 6.96792976  23.567778 6.86632072  23.68112175 6.68246072  C 23.852356125 6.40696072  23.7557604375 6.05075952  23.4656979375 5.88835952  C 22.6856979375 5.45103952  21.793897125 5.22  20.8877565 5.22  Z M 25.404510421875 7.85945298  C 25.291623703125 7.64499798  25.05744271875 7.52598952  24.820129546875 7.54113274  C 24.74102475 7.54618048  24.661072921875 7.56605476  24.585662765625 7.60230476  C 24.285240890625 7.74614476  24.1637565 8.09402702  24.315490875 8.38054702  C 24.470272125 8.67286702  24.58345378125 9.01020024  24.65231315625 9.38082024  C 24.70471940625 9.66212024  24.962104171875 9.86  25.252166671875 9.86  C 25.287510421875 9.86  25.323358734375 9.8567375  25.358093109375 9.8509375  C 25.689593109375 9.7952575  25.911710296875 9.49469976  25.853210296875 9.17917976  C 25.763632171875 8.69661976  25.612916671875 8.25327298  25.404510421875 7.85945298  Z M 27.421875 18.56  L 24.375 18.56  C 24.038625 18.56  23.765625 18.81984  23.765625 19.14  C 23.765625 19.46016  24.038625 19.72  24.375 19.72  L 27.421875 19.72  C 27.75825 19.72  28.03125 19.46016  28.03125 19.14  C 28.03125 18.81984  27.75825 18.56  27.421875 18.56  Z M 10.96875 21.46  C 10.96875 21.13984  10.69575 20.88  10.359375 20.88  C 10.023 20.88  9.75 21.13984  9.75 21.46  L 9.75 22.62  C 9.75 22.94016  10.023 23.2  10.359375 23.2  C 10.69575 23.2  10.96875 22.94016  10.96875 22.62  L 10.96875 21.46  Z M 14.015625 21.46  C 14.015625 21.13984  13.742625 20.88  13.40625 20.88  C 13.069875 20.88  12.796875 21.13984  12.796875 21.46  L 12.796875 22.62  C 12.796875 22.94016  13.069875 23.2  13.40625 23.2  C 13.742625 23.2  14.015625 22.94016  14.015625 22.62  L 14.015625 21.46  Z M 17.0625 21.46  C 17.0625 21.13984  16.7895 20.88  16.453125 20.88  C 16.11675 20.88  15.84375 21.13984  15.84375 21.46  L 15.84375 22.62  C 15.84375 22.94016  16.11675 23.2  16.453125 23.2  C 16.7895 23.2  17.0625 22.94016  17.0625 22.62  L 17.0625 21.46  Z M 20.109375 21.46  C 20.109375 21.13984  19.836375 20.88  19.5 20.88  C 19.163625 20.88  18.890625 21.13984  18.890625 21.46  L 18.890625 22.62  C 18.890625 22.94016  19.163625 23.2  19.5 23.2  C 19.836375 23.2  20.109375 22.94016  20.109375 22.62  L 20.109375 21.46  Z M 23.15625 21.46  C 23.15625 21.13984  22.88325 20.88  22.546875 20.88  C 22.2105 20.88  21.9375 21.13984  21.9375 21.46  L 21.9375 22.62  C 21.9375 22.94016  22.2105 23.2  22.546875 23.2  C 22.88325 23.2  23.15625 22.94016  23.15625 22.62  L 23.15625 21.46  Z M 26.203125 21.46  C 26.203125 21.13984  25.930125 20.88  25.59375 20.88  C 25.257375 20.88  24.984375 21.13984  24.984375 21.46  L 24.984375 22.62  C 24.984375 22.94016  25.257375 23.2  25.59375 23.2  C 25.930125 23.2  26.203125 22.94016  26.203125 22.62  L 26.203125 21.46  Z M 29.25 21.46  C 29.25 21.13984  28.977 20.88  28.640625 20.88  C 28.30425 20.88  28.03125 21.13984  28.03125 21.46  L 28.03125 22.62  C 28.03125 22.94016  28.30425 23.2  28.640625 23.2  C 28.977 23.2  29.25 22.94016  29.25 22.62  L 29.25 21.46  Z M 19.5 27.84  C 18.028747546875 27.84  16.7982774375 26.84187568  16.51501434375 25.52  L 22.48498565625 25.52  C 22.2017225625 26.84187568  20.971252453125 27.84  19.5 27.84  Z " fill-rule="nonzero" fill="#d9001b" stroke="none" transform="matrix(1 0 0 1 425 1914 )" />
  </g>
</svg>