<?xml version="1.0" encoding="utf-8"?>
<!-- Generator: Adobe Illustrator 24.1.1, SVG Export Plug-In . SVG Version: 6.00 Build 0)  -->
<svg version="1.1" id="Layer_1" xmlns="http://www.w3.org/2000/svg" xmlns:xlink="http://www.w3.org/1999/xlink" x="0px" y="0px"
	 viewBox="0 0 83.6 36.4" style="enable-background:new 0 0 83.6 36.4;" xml:space="preserve">
<style type="text/css">
	.st0{fill:#FF0013;}
	.st1{fill:#FFFFFF;}
</style>
<g>
	<path class="st0" d="M80.7,36.4H2.9c-1.6,0-2.8-1.3-2.8-2.8V2.9C0.1,1.3,1.3,0,2.9,0h77.8c1.6,0,2.8,1.3,2.8,2.8v30.7
		C83.6,35.1,82.3,36.4,80.7,36.4z"/>
	<g>
		<path class="st1" d="M72.8,17.5c0.8,0.5,0.8,1.7,0,2.2l-6.1,3.5l-6.1,3.5c-0.8,0.5-1.9-0.1-1.9-1.1v-7.1v-7.1c0-1,1-1.6,1.9-1.1
			l6.1,3.5L72.8,17.5z"/>
		<g>
			<path class="st1" d="M17.4,22.8c0.1,0,0.3,0,0.4,0.1s0.1,0.2,0.1,0.4v2c0,0.1,0,0.3-0.1,0.4s-0.2,0.1-0.4,0.1H8.7
				c-0.1,0-0.3,0-0.4-0.1c-0.1-0.1-0.1-0.2-0.1-0.4V13.2c0-0.1,0.1-0.3,0.1-0.4c0.1-0.1,0.2-0.1,0.4-0.1h2.5c0.1,0,0.3,0.1,0.4,0.1
				c0.1,0.1,0.1,0.2,0.1,0.4v9.6H17.4z"/>
			<path class="st1" d="M20,25.8c-0.1,0-0.3,0-0.4-0.1s-0.1-0.2-0.1-0.4V13.2c0-0.1,0-0.3,0.1-0.4c0.1-0.1,0.2-0.1,0.4-0.1h2.5
				c0.1,0,0.3,0.1,0.4,0.1c0.1,0.1,0.1,0.2,0.1,0.4v12.1c0,0.1,0,0.3-0.1,0.4s-0.2,0.1-0.4,0.1H20z"/>
			<path class="st1" d="M29.6,25.8c-0.5,0-0.8-0.3-1-0.8l-3.8-11.7c0-0.1,0-0.1,0-0.2c0,0,0-0.1,0-0.1c0-0.1,0-0.2,0.1-0.3
				s0.2-0.1,0.3-0.1h2.4c0.3,0,0.4,0.1,0.5,0.2s0.2,0.2,0.2,0.3l2.6,8.3l2.6-8.3c0-0.1,0.1-0.2,0.2-0.3c0.1-0.1,0.3-0.2,0.5-0.2h2.4
				c0.1,0,0.2,0,0.3,0.1S37,13,37,13.1c0,0,0,0.1,0,0.1s0,0.1,0,0.2l-3.8,11.7c-0.2,0.5-0.5,0.8-1,0.8
				C32.1,25.8,29.6,25.8,29.6,25.8z"/>
			<path class="st1" d="M48.1,22.8c0.1,0,0.3,0,0.4,0.1c0.1,0.1,0.2,0.2,0.2,0.4v2c0,0.1,0,0.3-0.2,0.4c-0.1,0.1-0.2,0.1-0.4,0.1
				h-8.9c-0.1,0-0.3,0-0.4-0.1c-0.1-0.1-0.2-0.2-0.2-0.4V13.2c0-0.1,0-0.3,0.2-0.4c0.1-0.1,0.2-0.1,0.4-0.1h8.8
				c0.1,0,0.3,0.1,0.4,0.1c0.1,0.1,0.2,0.2,0.2,0.4v2c0,0.1,0,0.3-0.2,0.4c-0.1,0.1-0.2,0.1-0.4,0.1h-5.8v2h5.4c0.1,0,0.3,0,0.4,0.1
				c0.1,0.1,0.2,0.2,0.2,0.4v2c0,0.1,0,0.3-0.2,0.4c-0.1,0.1-0.2,0.1-0.4,0.1h-5.4v2.1H48.1z"/>
		</g>
		<path class="st1" d="M64.5,31.2c-7.1,0-12.9-5.8-12.9-12.9S57.4,5.4,64.5,5.4s12.9,5.8,12.9,12.9S71.6,31.2,64.5,31.2z M64.5,6.7
			c-6.4,0-11.6,5.2-11.6,11.6s5.2,11.6,11.6,11.6s11.6-5.2,11.6-11.6S70.9,6.7,64.5,6.7z"/>
	</g>
</g>
</svg>
